<svg xmlns="http://www.w3.org/2000/svg" width="124" height="94" fill="none" viewBox="0 0 124 94"><g clip-path="url(#clip0)"><path fill="#FDB300" d="M26.9443 3.09333L61.7473 0L96.5503 3.09333L123.495 33.5023L61.7473 93.9533L0 33.5023L26.9443 3.09333Z"/><path fill="#EA6C00" d="M25.0108 33.502L61.7474 93.9529L0 33.502H25.0108Z"/><path fill="#EA6C00" d="M98.4839 33.502L61.7473 93.9529L123.495 33.502H98.4839Z"/><path fill="#FDAD00" d="M25.0107 33.502H98.484L61.7474 93.9529L25.0107 33.502Z"/><path fill="#FDD231" d="M61.7473 0L26.9442 3.09329L25.0107 33.5023L61.7473 0Z"/><path fill="#FDD231" d="M61.747 0L96.5502 3.09329L98.4836 33.5023L61.747 0Z"/><path fill="#FDAD00" d="M123.495 33.5028L96.5501 3.09375L98.4839 33.5028H123.495Z"/><path fill="#FDAD00" d="M0 33.5028L26.9442 3.09375L25.0108 33.5028H0Z"/><path fill="#FEEEB7" d="M61.7474 0L25.0107 33.5023H98.484L61.7474 0Z"/></g><defs><clipPath id="clip0"><rect width="123.744" height="94" fill="#fff"/></clipPath></defs></svg>